<svg xmlns="http://www.w3.org/2000/svg" viewBox="0 0 397.02 299.62"><defs><style>.cls-1{fill:#f2f2f2;}.cls-1,.cls-2,.cls-4{fill-rule:evenodd;}.cls-2{fill:#afb9c9;}.cls-3{fill:#8896ad;}.cls-4{fill:#e2e1e0;}</style></defs><title>Recurso 3</title><g id="Capa_2" data-name="Capa 2"><g id="Capa_1-2" data-name="Capa 1"><path class="cls-1" d="M397,284.48a15.13,15.13,0,0,1-15.19,15.14H15.19A15.13,15.13,0,0,1,0,284.48V15.14A15.14,15.14,0,0,1,15.19,0H381.83A15.14,15.14,0,0,1,397,15.14V284.48"/><path class="cls-2" d="M381.83,0H15.19A15.12,15.12,0,0,0,0,15.1V73.72H397V15.1A15.12,15.12,0,0,0,381.83,0"/><path class="cls-3" d="M318.56,13.19A7.78,7.78,0,1,1,326.34,21,7.78,7.78,0,0,1,318.56,13.19Z"/><ellipse class="cls-3" cx="351.7" cy="13.19" rx="7.44" ry="7.78"/><circle class="cls-3" cx="377.74" cy="13.19" r="7.78" transform="translate(304.22 383.94) rotate(-80.78)"/><path class="cls-4" d="M298.27,25.45A11.83,11.83,0,0,1,286.48,37.2H53.73a11.84,11.84,0,0,1,0-23.67H286.48a11.86,11.86,0,0,1,11.79,11.92"/></g></g></svg>